# Blender 4.4.3
# www.blender.org
mtllib Chains.mtl
o Mesh_0.024
v 4.094971 1.074722 -1.743310
v 3.902111 1.709578 -1.743310
v 3.897287 1.708113 -1.771898
v 4.090147 1.073256 -1.771898
v 3.723047 1.070010 -1.757604
v 3.912576 1.706559 -1.757604
v 3.884754 1.714839 -1.757604
v 3.695224 1.078290 -1.757604
v 4.106446 1.078208 -1.757604
v 3.913586 1.713064 -1.757604
v 3.885812 1.704626 -1.757604
v 4.078671 1.069770 -1.757604
v 3.707482 1.075292 -1.771898
v 3.909384 1.708026 -1.771898
v 3.904581 1.709558 -1.743310
v 3.702680 1.076824 -1.743310
v -4.759718 1.074722 -1.743310
v -4.952579 1.709578 -1.743310
v -4.957402 1.708113 -1.771898
v -4.764541 1.073256 -1.771898
v -5.131642 1.070010 -1.757604
v -4.942112 1.706559 -1.757604
v -4.969935 1.714839 -1.757604
v -5.159465 1.078290 -1.757604
v -4.748242 1.078208 -1.757604
v -4.941103 1.713064 -1.757604
v -4.968878 1.704626 -1.757604
v -4.776018 1.069770 -1.757604
v -5.147207 1.075292 -1.771898
v -4.945305 1.708026 -1.771898
v -4.950108 1.709558 -1.743310
v -5.152009 1.076824 -1.743310
v -5.147548 1.074722 1.132440
v -4.954689 1.709578 1.132440
v -4.949866 1.708113 1.161027
v -5.142725 1.073256 1.161027
v -4.775625 1.070010 1.146734
v -4.965155 1.706559 1.146734
v -4.937332 1.714839 1.146734
v -4.747802 1.078290 1.146734
v -5.159025 1.078208 1.146734
v -4.966164 1.713064 1.146734
v -4.938389 1.704626 1.146734
v -5.131249 1.069770 1.146734
v -4.760060 1.075292 1.161027
v -4.961962 1.708026 1.161027
v -4.957160 1.709558 1.132440
v -4.755258 1.076824 1.132440
v 3.707141 1.074722 1.132438
v 3.900000 1.709578 1.132439
v 3.904824 1.708113 1.161026
v 3.711963 1.073256 1.161026
v 4.079063 1.070010 1.146733
v 3.889535 1.706559 1.146733
v 3.917357 1.714839 1.146733
v 4.106886 1.078290 1.146733
v 3.695664 1.078208 1.146733
v 3.888525 1.713064 1.146733
v 3.916300 1.704626 1.146733
v 3.723439 1.069770 1.146733
v 4.094629 1.075292 1.161026
v 3.892726 1.708026 1.161026
v 3.897530 1.709558 1.132439
v 4.099431 1.076824 1.132438
vn -0.9423 -0.2863 0.1737
vn -0.0000 -0.0000 1.0000
vn 0.9382 -0.2994 0.1737
vn 0.9382 -0.2994 0.1736
vn -0.9423 -0.2863 0.1736
vn 0.9423 -0.2863 -0.1736
vn 0.9423 -0.2862 -0.1737
vn -0.0000 -0.0000 -1.0000
vn -0.9382 -0.2994 -0.1737
vn -0.9382 -0.2994 -0.1736
vn 0.9423 -0.2863 -0.1737
vt 0.677000 0.000000
vt 0.677000 3.098200
vt 0.146700 3.098200
vt 0.146700 0.000000
vt 0.678900 3.101300
vt 0.148500 3.103300
vt 0.677400 3.101200
vt 0.147100 3.101200
s 0
usemtl Material_20.009
f 1/1/1 2/2/1 3/3/1
f 1/1/1 3/3/1 4/4/1
f 5/1/2 6/5/2 7/6/2
f 5/1/2 7/6/2 8/4/2
f 9/1/2 10/2/2 11/3/2
f 9/1/2 11/3/2 12/4/2
f 13/1/3 14/7/3 15/8/3
f 13/1/4 15/8/4 16/4/4
f 17/1/5 18/2/5 19/3/5
f 17/1/1 19/3/1 20/4/1
f 21/1/2 22/5/2 23/6/2
f 21/1/2 23/6/2 24/4/2
f 25/1/2 26/2/2 27/3/2
f 25/1/2 27/3/2 28/4/2
f 29/1/3 30/7/3 31/8/3
f 29/1/4 31/8/4 32/4/4
f 33/1/6 34/2/6 35/3/6
f 33/1/7 35/3/7 36/4/7
f 37/1/8 38/5/8 39/6/8
f 37/1/8 39/6/8 40/4/8
f 41/1/8 42/2/8 43/3/8
f 41/1/8 43/3/8 44/4/8
f 45/1/9 46/7/9 47/8/9
f 45/1/10 47/8/10 48/4/10
f 49/1/11 50/2/11 51/3/11
f 49/1/6 51/3/6 52/4/6
f 53/1/8 54/5/8 55/6/8
f 53/1/8 55/6/8 56/4/8
f 57/1/8 58/2/8 59/3/8
f 57/1/8 59/3/8 60/4/8
f 61/1/9 62/7/9 63/8/9
f 61/1/10 63/8/10 64/4/10
